<?xml version="1.0" standalone="no"?>
<!DOCTYPE svg PUBLIC "-//W3C//DTD SVG 20010904//EN"
 "http://www.w3.org/TR/2001/REC-SVG-20010904/DTD/svg10.dtd">
<svg version="1.0" xmlns="http://www.w3.org/2000/svg"
 width="1600.000000pt" height="1600.000000pt" viewBox="0 0 1600.000000 1600.000000"
 preserveAspectRatio="xMidYMid meet">

<g transform="translate(0.000000,1600.000000) scale(0.100000,-0.100000)"
fill="#000000" stroke="none">
<path d="M7150 11906 c0 -2 8 -10 18 -17 15 -13 16 -12 3 4 -13 16 -21 21 -21
13z"/>
<path d="M7244 11868 c-5 -7 -3 -8 6 -3 10 6 12 3 7 -11 -7 -18 -6 -18 7 -1 9
12 16 14 21 7 3 -5 11 -8 16 -5 5 4 9 2 9 -3 0 -5 -9 -12 -20 -15 -18 -5 -20
-14 -20 -81 0 -61 3 -76 15 -76 8 0 15 -7 15 -15 0 -9 7 -18 15 -21 8 -4 15
-12 15 -20 0 -10 -6 -11 -26 -4 -35 14 -44 13 -44 -5 0 -8 6 -15 14 -15 8 0
17 -6 20 -12 5 -10 7 -10 12 -1 3 7 13 9 21 6 14 -6 14 -8 -3 -14 -28 -11 -56
-11 -49 1 3 6 -1 10 -9 10 -9 0 -16 -6 -16 -12 0 -8 -7 -5 -15 6 -8 11 -15 15
-15 10 0 -10 -79 -1 -120 14 -23 8 -34 11 -50 14 -8 2 -21 7 -27 11 -7 5 -16
6 -21 3 -6 -4 -46 3 -112 18 -14 4 -61 13 -105 21 -44 7 -113 21 -153 29 -96
21 -129 19 -177 -9 -22 -13 -54 -30 -71 -38 -33 -16 -53 -37 -34 -37 6 0 8 -5
4 -12 -6 -9 -3 -9 9 0 9 8 21 11 27 7 6 -4 21 -8 33 -10 108 -13 117 -17 118
-44 0 -21 2 -22 8 -8 4 10 11 19 16 19 6 0 16 5 24 11 12 9 13 9 7 0 -5 -9 -1
-13 12 -13 11 0 23 -7 26 -16 9 -24 6 -31 -5 -11 -9 15 -13 16 -27 5 -12 -10
-14 -10 -8 0 10 16 -2 15 -19 -2 -8 -7 -11 -16 -8 -20 4 -3 -1 -6 -10 -6 -15
0 -17 -13 -17 -92 0 -51 -5 -157 -10 -236 -11 -143 -11 -143 12 -162 21 -17
24 -17 30 -2 5 14 7 12 7 -5 1 -19 -4 -23 -29 -23 -16 0 -30 -5 -30 -11 0 -7
11 -9 30 -5 18 3 29 2 25 -3 -3 -5 -1 -12 5 -16 6 -4 5 -12 -5 -21 -8 -9 -13
-19 -11 -23 3 -4 -4 -7 -15 -7 -19 0 -19 1 -3 13 16 12 15 13 -8 13 -15 0 -35
3 -45 6 -17 6 -17 6 1 -8 14 -11 16 -17 7 -22 -6 -4 -17 -3 -24 2 -7 5 -40 8
-74 7 -38 -1 -60 2 -56 8 4 6 1 7 -6 2 -7 -4 -63 0 -124 9 -166 23 -440 54
-537 61 -47 3 -101 8 -121 11 -36 6 -38 5 -94 -70 l-57 -76 -209 0 c-133 0
-210 -4 -214 -10 -4 -6 -16 -8 -27 -4 -14 4 -18 2 -14 -5 4 -6 14 -11 22 -11
8 0 13 -4 10 -9 -9 -14 -55 -1 -49 15 4 11 -8 14 -63 12 -49 -1 -57 -3 -26 -5
23 -2 42 -8 42 -14 0 -5 -5 -9 -10 -9 -6 0 -5 -6 2 -14 9 -9 21 -11 43 -5 42
12 45 12 45 -11 0 -11 5 -20 10 -20 6 0 10 -9 10 -20 0 -15 -7 -20 -29 -20
-16 0 -31 -6 -35 -15 -3 -8 -11 -14 -18 -13 -16 4 -36 -257 -37 -484 l-1 -148
30 0 30 0 0 -80 c0 -52 4 -80 11 -80 8 0 9 -43 4 -157 -4 -86 -9 -163 -10
-172 -2 -9 -4 -21 -4 -28 -1 -7 -8 -10 -16 -7 -8 3 -14 9 -13 12 2 21 -4 32
-17 32 -8 0 -15 -9 -15 -21 0 -11 4 -18 9 -14 5 3 12 2 14 -2 7 -12 -11 -53
-23 -53 -6 0 -8 5 -5 10 3 6 1 10 -5 10 -7 0 -9 -8 -5 -20 5 -15 3 -18 -9 -14
-9 3 -14 10 -11 14 3 4 -3 7 -13 6 -10 0 -17 6 -18 19 -2 48 -4 49 -19 29 -20
-27 -19 -32 18 -54 17 -11 26 -20 19 -20 -7 0 -2 -11 13 -27 14 -15 25 -30 25
-34 0 -3 8 -6 17 -6 14 0 13 3 -5 15 l-21 14 24 39 c14 21 25 43 25 49 0 6 5
8 10 5 6 -4 8 -11 5 -16 -4 -5 -2 -9 2 -9 5 0 10 -13 11 -30 1 -16 -2 -30 -8
-30 -5 0 -7 7 -4 15 4 8 1 15 -6 15 -6 0 -8 5 -4 13 5 8 3 8 -9 -2 -9 -7 -14
-17 -11 -22 3 -5 0 -9 -5 -9 -6 0 -11 -5 -11 -11 0 -5 5 -7 12 -3 7 4 8 3 4
-4 -4 -7 -2 -12 3 -12 6 0 11 -6 11 -14 0 -8 5 -18 12 -22 8 -5 9 0 6 14 -4
12 -3 24 1 26 4 3 8 -5 8 -16 2 -28 12 -35 23 -18 6 9 10 10 10 3 0 -6 -4 -15
-10 -18 -5 -3 -10 -16 -9 -28 l0 -22 9 23 c13 32 17 28 16 -22 0 -28 -4 -42
-10 -39 -10 7 30 -53 49 -73 6 -6 19 -9 30 -8 11 2 65 6 120 9 55 4 182 13
283 21 440 36 1562 55 2052 35 612 -25 703 -30 896 -45 830 -67 1468 -157
2114 -298 102 -22 194 -42 205 -44 11 -2 83 -20 160 -40 77 -20 156 -39 175
-44 113 -25 260 -71 260 -81 0 -4 -29 1 -64 11 -36 10 -86 21 -113 25 -26 3
-75 12 -108 20 -103 23 -435 80 -670 114 -1042 152 -2036 209 -3165 183 -272
-7 -571 -18 -665 -26 -93 -8 -216 -17 -273 -20 -150 -8 -766 -73 -917 -97 -33
-5 -70 -10 -82 -9 -13 0 -23 -5 -23 -11 0 -5 3 -8 8 -6 12 8 13 -81 1 -125 -7
-24 -13 -48 -14 -53 -3 -15 -42 -103 -60 -138 -8 -16 -12 -34 -8 -39 3 -6 1
-8 -5 -4 -12 7 -27 -28 -18 -43 3 -5 -2 -8 -11 -7 -10 0 -19 -8 -21 -18 -2
-10 -13 -28 -23 -40 -11 -11 -17 -26 -14 -34 2 -7 1 -11 -4 -7 -5 3 -19 -11
-31 -30 -19 -31 -20 -38 -8 -53 12 -15 11 -16 -4 -4 -14 11 -21 6 -54 -45 -21
-32 -54 -78 -73 -103 -20 -24 -31 -41 -24 -37 6 4 13 4 16 0 2 -5 2 -2 0 5 -1
7 2 10 8 7 16 -11 5 -28 -21 -32 -34 -5 -42 -16 -35 -45 5 -18 12 -24 24 -21
12 3 18 -1 18 -14 0 -17 -19 -43 -32 -43 -14 0 -31 -26 -27 -39 3 -8 0 -11 -6
-7 -13 8 -52 -14 -52 -28 0 -6 5 -5 12 2 7 7 23 12 37 12 20 0 23 -3 11 -9 -8
-6 -17 -8 -21 -5 -4 2 -10 0 -14 -6 -3 -5 -1 -10 5 -10 6 0 10 -8 8 -17 -2
-11 3 -18 12 -17 22 1 16 -335 -6 -352 -15 -12 -19 -36 -7 -47 3 -4 13 -1 21
6 9 6 13 7 10 2 -4 -6 -3 -17 2 -24 5 -9 7 -3 7 16 -1 24 -5 29 -22 26 -16 -4
-17 -3 -5 6 8 6 23 8 34 5 14 -5 16 -3 11 7 -4 8 1 6 11 -4 18 -17 18 -19 2
-31 -10 -7 -18 -17 -18 -22 0 -4 5 -3 12 4 7 7 23 12 36 12 14 0 21 4 17 11
-4 6 0 9 11 7 11 -2 18 2 17 7 -1 6 14 11 34 12 19 1 40 6 46 12 7 5 66 28
132 51 188 67 389 136 398 138 4 0 67 20 140 43 72 24 137 43 142 44 6 0 37 8
70 18 150 43 321 87 578 146 225 53 542 114 822 160 501 82 1198 160 1635 182
102 5 248 14 325 20 198 16 1622 23 1925 10 823 -36 1733 -107 2340 -182 203
-25 204 -25 154 9 -23 15 -79 52 -125 83 -133 88 -309 202 -370 238 -50 30
-59 41 -84 100 -15 36 -34 80 -41 96 -7 17 -27 64 -44 105 -18 41 -38 88 -46
104 -8 16 -14 34 -15 40 0 6 -37 39 -82 74 -45 35 -95 74 -111 87 l-29 23 36
70 c21 39 37 72 37 76 0 3 -26 23 -57 45 -32 22 -98 70 -148 106 -49 36 -115
82 -145 102 -30 21 -57 40 -60 43 -5 7 -367 247 -490 325 -87 55 -150 95 -176
111 -18 11 -17 14 13 45 l32 34 -107 71 c-112 74 -170 111 -287 184 -38 24
-86 53 -105 66 -89 57 -339 202 -565 329 -108 61 -133 74 -220 121 -49 26
-112 60 -140 75 -81 44 -180 92 -181 88 0 -2 -9 4 -19 14 -9 10 -23 16 -31 13
-7 -3 -14 0 -17 7 -2 6 -4 -5 -5 -26 -1 -21 3 -35 8 -32 5 3 7 12 4 19 -3 8 0
17 7 22 8 4 10 3 5 -5 -4 -6 4 -32 18 -57 14 -26 19 -41 11 -34 -8 6 -27 13
-42 15 -50 5 -87 16 -123 34 -19 10 -59 29 -87 42 -29 13 -53 27 -53 30 0 4 9
26 20 50 11 24 20 50 20 56 0 15 -1046 533 -1076 533 -2 0 -44 18 -92 41 -48
22 -107 50 -132 61 -25 12 -58 27 -73 35 -29 15 -73 9 -252 -38 -38 -10 -83
-21 -100 -23 -16 -3 -77 -15 -135 -28 -149 -31 -128 -33 -385 44 -38 12 -84
22 -102 22 -17 1 -29 4 -27 7 5 8 -71 29 -118 32 -20 1 -34 5 -31 10 4 6 -15
11 -44 10 -7 -1 -13 3 -13 8 0 13 -38 11 -46 -3z m88 -135 l-9 -88 -1 105 c-1
75 2 100 9 88 6 -12 7 -48 1 -105z m430 -80 c52 -50 22 -133 -48 -133 -47 0
-70 14 -83 50 -12 37 -1 72 31 94 33 23 68 20 100 -11z m-347 -63 c-3 -5 -12
-10 -18 -10 -7 0 -6 4 3 10 19 12 23 12 15 0z m15 -15 c-9 -11 -9 -15 -1 -15
7 0 9 -5 5 -11 -4 -8 -9 -7 -15 2 -7 12 6 39 18 39 3 0 0 -7 -7 -15z m-30 -9
c0 -2 -7 -7 -16 -10 -8 -3 -12 -2 -9 4 6 10 25 14 25 6z m-684 -27 c8 -14 -10
-11 -32 6 -18 13 -18 14 4 8 12 -3 25 -9 28 -14z m1795 -98 c16 -17 29 -40 29
-54 0 -32 -33 -73 -65 -81 -60 -15 -123 61 -91 109 42 64 81 71 127 26z m504
10 c-3 -6 3 -15 12 -21 15 -8 12 -9 -12 -4 -22 4 -26 3 -15 -5 22 -15 9 -19
-30 -8 l-35 10 40 18 c49 21 48 21 40 10z m-2416 -158 c-1 -38 -4 -108 -8
-158 -7 -85 -8 -81 -9 68 -1 99 2 157 8 157 6 0 10 -28 9 -67z m3528 -280 c-4
-3 1 -12 11 -20 15 -13 15 -13 -5 -3 -24 11 -31 30 -11 30 6 0 8 -3 5 -7z
m-5210 -178 c0 -9 -9 -15 -21 -15 -21 1 -21 1 -2 15 24 18 23 18 23 0z m106 8
c-7 -2 -19 -2 -25 0 -7 3 -2 5 12 5 14 0 19 -2 13 -5z m76 -29 c10 -9 -55 -3
-69 6 -10 6 -2 7 25 3 22 -3 42 -7 44 -9z m-52 -956 c-2 -13 -4 -3 -4 22 0 25
2 35 4 23 2 -13 2 -33 0 -45z m0 -380 c-2 -24 -4 -5 -4 42 0 47 2 66 4 43 2
-24 2 -62 0 -85z m-265 60 c-7 -7 -12 -8 -12 -2 0 14 12 26 19 19 2 -3 -1 -11
-7 -17z m63 -58 c3 -5 2 -10 -4 -10 -5 0 -13 5 -16 10 -3 6 -2 10 4 10 5 0 13
-4 16 -10z m181 -222 c1 -9 -4 -15 -12 -14 -20 3 -27 13 -19 26 9 15 28 8 31
-12z m6305 -526 c-7 -2 -18 1 -23 6 -8 8 -4 9 13 5 13 -4 18 -8 10 -11z
m-6306 -382 c3 -6 -1 -7 -9 -4 -18 7 -21 14 -7 14 6 0 13 -4 16 -10z m-68 -99
c0 -11 -5 -17 -9 -15 -4 3 -8 0 -8 -5 0 -6 4 -11 8 -11 4 0 8 -9 9 -20 1 -13
-2 -18 -9 -14 -7 5 -9 2 -6 -8 5 -11 -1 -15 -22 -14 -16 1 -32 5 -37 10 -4 5
4 6 19 2 21 -5 28 -2 33 15 4 13 2 24 -4 29 -9 5 -8 10 3 20 9 7 13 16 10 21
-3 5 -1 9 5 9 5 0 9 -9 8 -19z m-27 -45 c0 -2 -9 -6 -20 -9 -11 -3 -18 -1 -14
4 5 9 34 13 34 5z m-58 -104 c-7 -2 -9 -9 -6 -14 4 -7 2 -8 -4 -4 -19 12 -15
36 5 29 11 -4 13 -8 5 -11z m-32 -2 c0 -5 -5 -10 -11 -10 -5 0 -7 5 -4 10 3 6
8 10 11 10 2 0 4 -4 4 -10z m83 -4 c4 -10 1 -13 -8 -9 -8 3 -12 9 -9 14 7 12
11 11 17 -5z m44 -88 c-3 -8 -6 -5 -6 6 -1 11 2 17 5 13 3 -3 4 -12 1 -19z m0
-310 c-2 -13 -4 -3 -4 22 0 25 2 35 4 23 2 -13 2 -33 0 -45z m18 -126 c-3 -3
-11 0 -18 7 -9 10 -8 11 6 5 10 -3 15 -9 12 -12z m5 -21 c0 -5 -7 -11 -14 -14
-10 -4 -13 -1 -9 9 6 15 23 19 23 5z"/>
<path d="M5000 9259 c0 -5 5 -7 10 -4 6 3 10 8 10 11 0 2 -4 4 -10 4 -5 0 -10
-5 -10 -11z"/>
<path d="M10084 10965 c-16 -12 -17 -14 -3 -15 9 0 19 7 23 15 7 19 5 19 -20
0z"/>
<path d="M4698 10823 c7 -3 16 -2 19 1 4 3 -2 6 -13 5 -11 0 -14 -3 -6 -6z"/>
<path d="M4880 10768 c0 -4 19 -8 42 -8 23 0 38 3 34 8 -10 10 -76 10 -76 0z"/>
<path d="M4846 9859 c-3 -34 -6 -107 -6 -162 0 -86 2 -98 16 -93 9 3 22 6 30
6 11 0 14 28 14 155 l0 155 -24 0 c-21 0 -24 -5 -30 -61z"/>
<path d="M4470 9876 c0 -2 8 -10 18 -17 15 -13 16 -12 3 4 -13 16 -21 21 -21
13z"/>
<path d="M4673 9666 c0 -8 5 -14 11 -13 5 1 10 -4 11 -12 0 -8 6 -15 13 -17 7
-1 8 0 2 3 -7 3 -7 10 2 21 7 10 8 14 3 9 -4 -4 -16 0 -25 8 -14 13 -17 13
-17 1z"/>
<path d="M4720 9591 c0 -5 5 -13 10 -16 6 -3 10 -2 10 4 0 5 -4 13 -10 16 -5
3 -10 2 -10 -4z"/>
<path d="M4893 9378 c15 -20 27 -41 27 -46 0 -5 7 -9 15 -9 8 0 15 6 15 14 0
7 -5 12 -12 11 -7 -2 -15 11 -19 27 -4 17 -7 24 -8 16 -1 -11 -6 -10 -23 5
-19 16 -18 13 5 -18z"/>
<path d="M4795 8050 c6 -10 4 -12 -8 -7 -24 9 -21 2 7 -16 23 -15 24 -15 19 4
-3 10 -10 22 -16 26 -6 4 -7 1 -2 -7z"/>
<path d="M4736 7995 c-15 -14 -22 -25 -16 -25 6 0 8 -4 5 -10 -3 -6 1 -7 9 -4
9 3 13 10 10 16 -3 5 2 18 12 29 25 27 12 24 -20 -6z"/>
<path d="M4783 8005 c0 -8 4 -15 9 -15 4 0 8 4 8 9 0 6 -4 12 -8 15 -5 3 -9
-1 -9 -9z"/>
<path d="M4690 7945 c-7 -9 -8 -15 -2 -15 5 0 12 7 16 15 3 8 4 15 2 15 -2 0
-9 -7 -16 -15z"/>
<path d="M4654 7898 c-16 -18 -17 -21 -2 -15 9 3 19 1 21 -6 2 -7 4 0 4 16 1
33 1 32 -23 5z"/>
<path d="M4705 7900 c-3 -5 -2 -18 4 -27 7 -14 9 -12 8 10 -2 30 -3 31 -12 17z"/>
<path d="M4740 7850 c0 -5 7 -10 15 -10 8 0 15 5 15 10 0 6 -7 10 -15 10 -8 0
-15 -4 -15 -10z"/>
<path d="M4607 7844 c-3 -3 -3 -13 0 -22 4 -9 2 -13 -4 -9 -6 4 -16 0 -22 -7
-9 -11 -9 -16 0 -22 8 -4 9 -3 5 4 -4 7 -1 12 9 12 9 0 13 -4 10 -10 -4 -6 1
-7 11 -3 13 5 15 3 9 -7 -6 -9 -4 -11 5 -5 11 7 10 10 -1 19 -8 6 -14 21 -13
34 1 24 1 25 -9 16z"/>
<path d="M4525 7739 c-3 -4 2 -6 10 -5 21 3 28 13 10 13 -9 0 -18 -4 -20 -8z"/>
<path d="M4753 7605 c0 -44 2 -61 4 -37 2 23 2 59 0 80 -2 20 -4 1 -4 -43z"/>
<path d="M4835 7500 c-3 -5 -1 -10 4 -10 6 0 11 5 11 10 0 6 -2 10 -4 10 -3 0
-8 -4 -11 -10z"/>
<path d="M4740 7472 c0 -7 5 -12 10 -12 6 0 10 -6 10 -14 0 -9 7 -12 20 -9 25
7 26 23 2 23 -10 0 -23 5 -30 12 -9 9 -12 9 -12 0z"/>
<path d="M4695 7432 c3 -3 -3 -15 -12 -26 -14 -15 -14 -18 -2 -8 9 6 18 11 20
9 2 -1 3 0 2 2 -2 2 2 9 7 16 7 8 5 12 -5 12 -8 0 -13 -3 -10 -5z"/>
<path d="M4601 7386 c-18 -22 5 -30 31 -12 12 9 17 16 11 16 -7 0 -15 -4 -18
-10 -3 -5 -11 -10 -17 -10 -7 0 -6 6 2 15 7 8 10 15 7 15 -2 0 -10 -6 -16 -14z"/>
<path d="M4533 7335 c0 -7 6 -11 14 -8 7 3 13 6 13 8 0 2 -6 5 -13 8 -8 3 -14
-1 -14 -8z"/>
<path d="M4490 7331 c0 -6 4 -13 10 -16 6 -3 7 1 4 9 -7 18 -14 21 -14 7z"/>
<path d="M6395 7290 c-3 -14 -14 -63 -24 -110 -11 -47 -29 -128 -41 -180 -12
-52 -29 -131 -40 -175 -20 -87 -48 -209 -79 -350 -11 -49 -23 -109 -26 -132
l-7 -43 81 0 c92 0 92 1 106 92 7 43 9 46 43 52 21 3 67 3 104 -1 74 -6 72 -4
80 -98 4 -38 36 -55 108 -55 73 0 83 8 75 56 -7 46 -51 245 -105 479 -11 44
-29 123 -41 175 -12 52 -30 127 -40 165 -11 39 -19 79 -19 91 0 40 -21 52 -98
56 -71 4 -73 3 -77 -22z m103 -392 c31 -166 35 -200 21 -210 -14 -9 -86 -5
-96 6 -3 3 2 36 10 73 8 37 21 94 27 126 6 31 15 57 20 57 5 0 13 -24 18 -52z"/>
<path d="M5550 7303 l-55 -4 -1 -494 -2 -495 79 0 79 0 0 226 c0 128 4 223 9
220 5 -3 11 -18 14 -33 8 -45 94 -376 106 -405 16 -43 48 -37 59 10 5 20 15
60 22 87 7 28 19 75 26 105 22 98 65 254 71 260 3 3 4 -103 2 -235 l-4 -240
85 0 85 0 3 504 c2 457 1 503 -14 497 -8 -3 -44 -6 -79 -6 l-64 0 -12 -42 c-6
-24 -19 -70 -29 -103 -10 -33 -28 -96 -40 -140 -12 -44 -30 -105 -40 -135 -10
-30 -21 -67 -24 -82 -4 -16 -10 -28 -15 -28 -10 0 -23 41 -102 335 -12 44 -29
107 -39 140 -19 67 -16 65 -120 58z"/>
<path d="M4445 7290 c-3 -6 1 -7 9 -4 18 7 21 14 7 14 -6 0 -13 -4 -16 -10z"/>
<path d="M6923 7291 l-82 -6 -5 -492 -4 -491 21 -6 c34 -9 130 -7 146 3 11 7
13 37 7 171 l-8 161 43 -3 c42 -3 44 -4 55 -48 25 -90 53 -206 59 -242 7 -45
21 -50 115 -46 l65 3 -3 35 c-1 19 -16 82 -33 140 -67 227 -64 205 -30 258 55
86 61 111 61 249 0 113 -3 134 -24 178 -25 54 -57 92 -99 120 -31 20 -147 27
-284 16z m196 -216 c53 -27 67 -165 23 -224 -23 -32 -77 -47 -114 -32 l-28 11
0 114 c0 63 3 121 6 130 8 21 75 21 113 1z"/>
<path d="M7975 7288 c-49 -5 -142 -6 -206 -2 l-115 6 -12 -104 c-7 -57 -12
-109 -12 -117 0 -11 15 -12 76 -7 l77 7 -7 -390 -8 -391 86 0 86 0 0 391 0
391 73 -4 c63 -3 72 -1 71 15 0 9 -1 62 -2 117 -1 55 -5 99 -9 99 -5 -1 -48
-6 -98 -11z"/>
<path d="M10799 7287 c-45 -17 -70 -35 -101 -72 -82 -100 -128 -258 -128 -445
0 -267 100 -475 245 -510 44 -11 62 -11 100 0 44 12 135 81 135 103 0 6 7 18
16 28 20 23 21 49 2 95 -45 110 -52 124 -58 124 -4 0 -21 -18 -38 -40 -40 -49
-90 -65 -137 -46 -42 18 -61 46 -87 130 -37 121 -11 288 55 354 22 22 37 27
73 27 43 0 50 -4 94 -53 41 -45 49 -50 55 -35 20 48 65 179 65 189 0 20 -67
99 -106 126 -48 33 -133 44 -185 25z"/>
<path d="M7406 7053 c4 -131 1 -353 -5 -493 -8 -200 -8 -256 2 -262 6 -4 47
-8 90 -8 l77 0 0 318 c0 176 3 401 7 500 l6 182 -91 0 -92 0 6 -237z"/>
<path d="M8140 6948 c0 -189 -3 -413 -7 -500 l-6 -156 54 -7 c30 -4 70 -3 89
2 l35 9 0 370 c1 203 5 426 9 497 l9 127 -92 0 -91 0 0 -342z"/>
<path d="M8402 6933 c1 -197 -2 -422 -6 -500 l-8 -143 86 0 86 0 2 233 c3 253
2 251 48 67 73 -291 81 -315 105 -315 20 0 23 8 77 220 11 44 29 110 39 147
11 36 19 75 19 86 0 12 5 24 10 27 7 4 10 -75 10 -229 l0 -234 76 -4 c42 -2
79 -1 83 2 4 3 8 229 8 503 l1 497 -79 0 c-78 0 -79 0 -85 -27 -3 -16 -15 -57
-25 -93 -11 -36 -28 -94 -39 -130 -10 -36 -28 -94 -38 -130 -11 -36 -25 -84
-31 -108 -15 -53 -32 -50 -48 9 -6 24 -23 87 -37 139 -14 52 -31 115 -38 140
-6 25 -21 79 -34 120 l-22 75 -81 3 -81 3 2 -358z"/>
<path d="M9133 7055 c2 -126 0 -349 -6 -494 -8 -215 -7 -265 3 -271 8 -5 94
-9 192 -10 98 0 185 -3 192 -6 8 -3 19 3 24 13 11 21 34 221 27 233 -3 4 -58
6 -123 3 -71 -2 -123 0 -132 6 -11 7 -15 29 -15 78 l0 68 118 -2 117 -1 0 93
c0 51 3 106 6 122 l6 29 -118 -1 -118 0 -6 35 c-3 19 -3 51 0 70 l5 35 80 0
c44 0 100 -3 124 -7 l44 -6 -5 109 c-2 60 -9 114 -15 120 -7 7 -84 12 -208 13
l-197 2 5 -231z"/>
<path d="M9835 7266 c-2 -11 -6 -67 -9 -123 l-6 -103 27 5 c16 2 48 7 72 10
l44 6 -6 -389 -7 -390 31 -6 c39 -8 97 -8 127 0 l22 6 0 390 0 391 69 -7 68
-7 -3 118 -2 118 -29 -2 c-160 -11 -297 -14 -341 -5 -49 9 -53 8 -57 -12z"/>
<path d="M12931 7261 c-90 -60 -131 -137 -138 -257 -6 -94 0 -119 64 -254 71
-149 60 -225 -39 -271 -26 -12 -48 -27 -48 -32 0 -50 64 -217 83 -217 26 0
113 67 149 115 46 60 70 135 76 232 5 82 -8 131 -69 261 -31 66 -39 94 -39
141 0 69 21 95 76 95 31 0 34 3 29 21 -3 11 -16 58 -28 105 -21 75 -26 85 -48
88 -14 1 -43 -10 -68 -27z"/>
<path d="M10325 7048 c4 -133 2 -344 -4 -493 -11 -241 -10 -261 6 -272 18 -14
131 -18 149 -5 8 5 13 156 16 505 l5 497 -89 0 -90 0 7 -232z"/>
<path d="M11146 7270 c-1 -3 -1 -228 -1 -500 l0 -495 80 0 80 0 3 176 c2 170
3 177 26 198 l24 22 17 -48 c39 -108 53 -152 75 -223 38 -129 34 -125 123
-128 63 -2 78 0 83 13 9 22 -9 118 -34 185 -48 128 -85 228 -99 273 -16 45
-15 48 4 70 24 25 83 151 83 176 0 9 9 43 19 76 10 33 22 93 26 133 l7 73 -78
-3 -78 -3 -19 -80 c-54 -232 -69 -268 -121 -293 -57 -28 -59 -21 -55 189 l4
190 -83 2 c-46 1 -85 0 -86 -3z"/>
<path d="M11727 6982 c2 -158 1 -379 -4 -490 -4 -112 -6 -208 -3 -212 3 -5 98
-10 210 -11 l205 -1 8 38 c4 22 9 77 10 124 2 67 -1 84 -12 82 -7 -1 -55 -5
-107 -9 -78 -5 -97 -3 -119 11 -24 16 -26 21 -23 84 l3 67 118 -1 117 -2 0
119 0 119 -106 -7 c-126 -7 -134 -2 -134 83 0 82 -1 81 209 58 l53 -7 -7 104
c-3 57 -9 111 -11 121 -4 14 -27 16 -208 16 l-203 1 4 -287z"/>
<path d="M12258 7263 l-28 -4 -2 -445 c-1 -244 -2 -465 -3 -491 l0 -48 89 -3
89 -3 -8 171 -7 170 40 0 41 0 20 -67 c11 -38 31 -113 45 -168 l24 -100 86 -3
c86 -3 86 -3 86 22 0 14 -5 37 -10 52 -6 15 -20 59 -30 98 -11 39 -29 104 -40
144 l-20 73 26 34 c43 56 66 132 72 232 4 78 1 104 -18 163 -28 86 -81 151
-138 168 -37 11 -251 14 -314 5z m257 -220 c32 -23 40 -50 39 -137 0 -64 -2
-70 -30 -92 -18 -15 -42 -24 -66 -24 -69 0 -68 -1 -68 136 0 106 2 124 18 134
23 14 75 6 107 -17z"/>
<path d="M13111 6674 c0 -11 3 -14 6 -6 3 7 2 16 -1 19 -3 4 -6 -2 -5 -13z"/>
<path d="M13151 6674 c0 -11 3 -14 6 -6 3 7 2 16 -1 19 -3 4 -6 -2 -5 -13z"/>
<path d="M13201 6674 c0 -11 3 -14 6 -6 3 7 2 16 -1 19 -3 4 -6 -2 -5 -13z"/>
</g>
</svg>
